<svg width="190" height="75" viewBox="0 0 190 75" fill="none" xmlns="http://www.w3.org/2000/svg">
<g clip-path="url(#clip0_1_18)">
<path d="M92.8496 0.0859985C92.8899 5.20066 92.8899 10.3153 92.8899 15.4756C82.1607 15.4756 71.4622 15.4756 60.7707 15.4756C60.3881 18.5015 60.0113 21.4815 59.6295 24.5006C60.3311 24.2657 61.0188 24.0265 61.7121 23.805C63.5378 23.2219 65.3828 22.7094 67.2861 22.4529C68.3758 22.3061 69.471 22.1707 70.5681 22.1156C72.0651 22.0404 73.5704 21.9622 75.0645 22.0372C77.5063 22.1598 79.9187 22.5301 82.2722 23.2375C84.8043 23.9984 87.1511 25.145 89.295 26.674C90.7252 27.694 92.0024 28.9009 93.1653 30.2327C94.4269 31.6773 95.5034 33.2328 96.3906 34.9328C97.4122 36.8903 98.1865 38.9384 98.6372 41.0931C98.9437 42.5577 99.1194 44.0502 99.3365 45.5328C99.4161 46.0758 99.4464 46.626 99.5032 47.214C98.6787 47.2735 97.8449 47.4136 97.0188 47.3779C94.906 47.2865 92.8129 47.0187 90.9418 45.9254C90.1115 45.4402 89.2552 44.9401 88.5708 44.2807C87.8864 43.6213 87.363 42.7796 86.8395 41.9721C86.209 40.9995 85.704 39.9436 85.0507 38.9879C84.3091 37.9032 83.4137 36.9456 82.4088 36.0772C81.4261 35.2281 80.3958 34.4673 79.2741 33.8208C77.9325 33.0475 76.5248 32.4163 75.034 32.0094C73.9559 31.7152 72.8549 31.4261 71.7477 31.3365C70.3212 31.221 68.8768 31.2658 67.4428 31.3171C65.7055 31.3793 64.0401 31.8382 62.4137 32.4279C60.5196 33.1147 58.7476 34.0408 57.1917 35.3278C56.3388 36.0334 55.4983 36.7733 54.7614 37.5956C53.5614 38.9349 52.5537 40.4131 51.8491 42.0919C51.1725 43.7039 50.5623 45.3365 50.2009 47.0456C49.9981 48.0048 49.9084 48.9902 49.8061 49.9677C49.7308 50.6879 49.7177 51.4146 49.673 52.2084C48.3371 50.6808 46.8526 49.3599 45.2275 48.1873C43.62 47.0272 41.9073 46.068 40.0477 45.2515C40.1235 44.6345 40.1941 44.0061 40.2796 43.3796C40.3782 42.6565 40.4911 41.9353 40.5959 41.213C40.7369 40.2404 40.884 39.2685 41.0139 38.2943C41.1422 37.3318 41.2421 36.3654 41.3732 35.4032C41.5 34.4725 41.6574 33.5459 41.7886 32.6157C41.8889 31.9046 41.9623 31.1897 42.0601 30.4783C42.1902 29.5332 42.3356 28.5903 42.4683 27.6456C42.5661 26.9495 42.6497 26.2513 42.7474 25.5552C42.884 24.5821 43.0363 23.6112 43.1662 22.6373C43.2945 21.6748 43.3927 20.7083 43.5236 19.7461C43.6502 18.8151 43.8081 17.8884 43.94 16.958C44.0664 16.0674 44.1736 15.174 44.2955 14.2827C44.4325 13.2807 44.5821 12.2803 44.7159 11.2778C44.8405 10.3443 44.9423 9.40767 45.0714 8.47478C45.2003 7.54379 45.3561 6.61657 45.4896 5.68619C45.5874 5.00397 45.6647 4.31883 45.7576 3.63586C45.8956 2.62084 46.0414 1.60686 46.1782 0.591679C46.1972 0.450906 46.1838 0.305776 46.1862 0.12433C61.7277 0.0859985 77.2685 0.0859985 92.8496 0.0859985Z" fill="#88BD2F"/>
<path d="M11.3676 41.7991C11.3624 41.6132 11.3526 41.4273 11.3525 41.2415C11.3518 34.6524 11.3519 28.0633 11.3519 21.4742C11.3519 21.3036 11.3519 21.1329 11.3519 20.9003C11.1818 20.9003 11.031 20.9003 10.8803 20.9003C7.45681 20.9003 4.03335 20.901 0.609895 20.8979C0.457411 20.8978 0.304959 20.8628 0.119251 20.8292C0.0860098 16.8847 0.0860098 12.9551 0.119253 8.9703C0.219076 8.89646 0.284906 8.86514 0.352347 8.86116C1.85388 8.77266 3.35969 8.7301 4.85596 8.58728C6.01187 8.47696 7.17014 8.30479 8.30205 8.04837C10.4301 7.56631 12.4328 6.75388 14.2286 5.48829C15.4868 4.60163 16.587 3.54467 17.4535 2.27091C17.929 1.57204 18.3206 0.816166 18.75 0.0859985C23.2816 0.0859985 27.8132 0.0859985 32.3852 0.0859985C32.4248 14.2785 32.4242 28.4711 32.3842 42.7047C30.5649 42.4539 28.7913 42.11 27.0028 41.8862C25.5082 41.6991 23.9965 41.5699 22.4914 41.5605C18.807 41.5374 15.1177 41.4118 11.4229 41.8013C11.4045 41.8004 11.3676 41.7991 11.3676 41.7991Z" fill="#88BD2F"/>
<path d="M67.9015 75.086C67.3871 75.0001 66.9153 74.8961 66.4382 74.8321C65.4888 74.7049 64.5333 74.6209 63.5862 74.4799C62.4072 74.3044 61.2195 74.1505 60.062 73.8759C58.5848 73.5255 57.1118 73.1281 55.6772 72.6342C53.8218 71.9954 52.0567 71.128 50.4128 70.0527C49.0324 69.1497 47.6464 68.2368 46.3734 67.1934C45.0984 66.1484 43.8632 65.0203 42.7861 63.7766C41.3416 62.1087 40.0629 60.2969 38.7233 58.5391C38.6215 58.4054 38.6013 58.2094 38.5432 58.0424C38.7235 57.9896 38.9044 57.8897 39.0841 57.892C40.0379 57.9037 40.9941 57.9063 41.9447 57.9764C44.4842 58.1637 46.9925 58.531 49.3949 59.4295C51.1588 60.0893 52.8634 60.8791 54.487 61.8321C55.762 62.5804 57.0358 63.3359 58.2638 64.1575C59.3085 64.8565 60.2866 65.6549 61.296 66.4069C61.3473 66.4452 61.4153 66.461 61.5468 66.43C61.3838 66.1732 61.2141 65.9204 61.0589 65.659C60.3598 64.4818 59.5987 63.3356 58.9825 62.1162C57.8191 59.8144 56.9866 57.3851 56.5155 54.8437C56.208 53.1846 56.1518 51.4979 56.2703 49.8257C56.4015 47.9731 56.8325 46.1583 57.7838 44.5406C58.3602 43.5605 59.1001 42.6754 59.7796 41.7573C60.4692 40.8253 61.3587 40.0941 62.3254 39.4868C63.8325 38.54 65.4826 37.9064 67.2558 37.6834C68.2519 37.5582 69.2674 37.4739 70.2673 37.5198C71.7119 37.5862 73.1135 37.9302 74.4471 38.5212C75.9559 39.1899 77.3198 40.0716 78.4618 41.2663C79.7606 42.6249 80.6606 44.2105 80.9239 46.0909C81.0726 47.1529 81.2011 48.2336 81.1711 49.3012C81.1238 50.9903 80.846 52.6597 80.07 54.1923C79.4068 55.5022 78.5263 56.6534 77.1945 57.3366C76.5966 57.6433 75.9158 57.8321 75.2506 57.9544C74.1443 58.1577 73.0229 58.1479 71.9362 57.7962C70.7157 57.4013 69.6811 56.7562 69.0988 55.5493C68.836 55.0048 69.2388 54.4002 69.8913 54.3582C71.3929 54.2616 72.7161 53.7581 73.7544 52.6332C74.9496 51.3383 75.4482 49.8364 75.1845 48.0636C74.8039 45.5047 73.013 43.885 70.6234 43.3717C69.2453 43.0757 67.8903 43.2699 66.5782 43.8546C64.7968 44.6485 63.5143 45.9408 62.6677 47.6572C62.1203 48.767 61.8528 49.9641 61.7369 51.2136C61.5692 53.0221 61.8722 54.7448 62.444 56.437C63.116 58.4254 64.2255 60.1509 65.8041 61.5278C67.4098 62.9284 69.2869 63.8113 71.3852 64.2668C72.5998 64.5304 73.8191 64.5841 75.0278 64.4866C77.606 64.2786 79.9609 63.4315 82.0353 61.8237C84.1825 60.1594 85.6891 58.026 86.8018 55.5873C87.4167 54.2395 87.8628 52.8327 88.1051 51.3625C88.7346 51.7504 89.3292 52.1672 89.9683 52.4981C90.7851 52.921 91.6748 53.1061 92.5985 53.1582C94.9152 53.2888 97.06 52.7131 99.0914 51.6381C99.1762 51.5932 99.2673 51.56 99.4336 51.4872C99.3988 51.9977 99.4112 52.4613 99.3284 52.9072C99.0958 54.1594 98.8841 55.4205 98.5501 56.6471C98.2437 57.7722 97.8235 58.8707 97.3916 59.9563C96.6259 61.881 95.4918 63.5986 94.2469 65.2397C93.7786 65.8571 93.2161 66.4034 92.695 66.9807C91.3562 68.4638 89.8164 69.7038 88.1326 70.7736C86.6511 71.7149 85.0844 72.4798 83.4456 73.1029C81.7174 73.76 79.9301 74.2094 78.1182 74.5468C77.1243 74.7318 76.1084 74.8008 75.1013 74.9117C74.6508 74.9613 74.1976 74.9854 73.7278 75.0535C71.7872 75.086 69.8645 75.086 67.9015 75.086ZM61.7421 66.6785C61.7239 66.6481 61.7058 66.6176 61.6876 66.5872C61.6896 66.6283 61.6917 66.6695 61.7421 66.6785Z" fill="#88BD2F"/>
<path d="M189.134 53.2182C188.962 53.9817 188.779 54.7211 188.622 55.4661C188.313 56.93 188.02 58.3973 187.718 59.8627C187.331 61.7389 186.94 63.6142 186.555 65.4906C186.38 66.3389 186.213 67.1886 186.045 68.0382C185.904 68.7574 186.409 69.5174 187.132 69.5694C187.745 69.6135 188.367 69.5512 188.987 69.5359C188.981 70.3154 188.717 71.1225 188.208 71.8503C187.535 72.8142 186.612 73.3579 185.451 73.5449C184.524 73.6941 183.633 73.6509 182.758 73.2876C182.1 73.0145 181.573 72.595 181.222 71.978C180.504 70.7182 180.338 69.3655 180.522 67.939C180.911 64.921 181.708 61.9875 182.331 59.018C182.543 58.0046 182.74 56.9878 182.955 55.9194C182.064 55.8502 181.33 56.1555 180.714 56.7239C179.809 57.5606 179.322 58.6638 178.999 59.8164C178.518 61.5369 178.136 63.2847 177.692 65.0159C177.277 66.6381 176.9 68.2749 176.384 69.8657C176.006 71.0314 175.403 72.1303 174.314 72.8116C173.825 73.1174 173.259 73.3999 172.7 73.4709C171.828 73.5815 170.915 73.6127 170.051 73.4776C168.891 73.2964 168.035 72.5638 167.449 71.5389C167.436 71.5172 167.409 71.5041 167.404 71.4999C166.89 71.8994 166.4 72.3248 165.867 72.6851C164.619 73.5283 163.239 73.7492 161.752 73.5549C160.924 73.4466 160.19 73.1851 159.513 72.7053C158.674 72.111 158.204 71.2898 158.003 70.309C157.726 68.9581 158.033 67.6411 158.295 66.3266C158.648 64.5583 159.007 62.7914 159.378 61.0268C159.589 60.0197 159.828 59.0184 160.062 57.9834C158.616 58.8178 157.203 59.6335 155.79 60.4494C155.988 61.0369 156.241 61.6299 156.387 62.2481C156.823 64.0897 156.685 65.8997 155.994 67.6676C155.387 69.2201 154.467 70.5558 153.214 71.6488C152.137 72.5886 150.865 73.1826 149.468 73.4343C148.624 73.5864 147.744 73.6506 146.888 73.6056C145.333 73.5238 143.894 73.0815 142.83 71.8308C142.226 71.1198 141.938 70.2756 141.82 69.4693C140.877 70.2993 139.958 71.2342 138.912 71.9941C137.767 72.8254 136.478 73.3836 135.025 73.556C133.712 73.7119 132.445 73.6098 131.264 73.0567C129.755 72.3504 128.87 71.0873 128.408 69.5028C127.995 68.0906 128.186 66.6476 128.168 65.2172C128.161 64.7355 128.311 64.2518 128.392 63.7508C127.672 63.7508 126.959 63.7508 126.209 63.7508C125.97 64.8872 125.727 66.0318 125.489 67.1774C125.215 68.4921 124.947 69.8078 124.675 71.1229C124.545 71.7527 124.407 72.3809 124.286 73.0124C124.245 73.228 124.194 73.3717 123.924 73.3703C122.204 73.3613 120.485 73.3657 118.71 73.3657C119.389 70.152 120.063 66.9624 120.745 63.7334C120.091 63.7334 119.449 63.7214 118.808 63.7461C118.709 63.7499 118.555 63.9087 118.53 64.019C118.034 66.2509 117.247 68.3645 115.909 70.2329C115.082 71.3888 114.039 72.3464 112.754 72.9746C111.329 73.6711 109.816 73.774 108.259 73.4882C107.104 73.2761 106.148 72.7469 105.539 71.7491C105.236 71.2518 105.013 70.6469 104.957 70.071C104.858 69.0504 104.875 68.019 105.409 67.0638C106.098 65.8323 107.486 65.5804 108.54 66.2222C108.794 66.3772 108.804 66.5312 108.737 66.8186C108.548 67.6216 108.353 68.4373 108.312 69.2556C108.282 69.8505 108.408 70.4696 108.855 70.9768C109.414 71.6123 110.182 71.4454 110.692 70.9946C111.447 70.327 111.972 69.4702 112.305 68.5429C112.79 67.1958 113.197 65.8165 113.552 64.4293C113.771 63.5773 113.872 62.6884 113.951 61.8094C114.031 60.9168 114.064 60.0145 114.036 59.1192C114.007 58.2333 113.816 57.374 113.281 56.6228C112.889 56.0735 111.967 55.7379 111.31 55.8467C109.868 56.0856 109.323 57.2072 108.82 58.3429C108.632 58.7667 108.455 58.9795 107.968 58.9348C107.457 58.888 106.939 58.9243 106.364 58.9243C106.849 57.4099 107.372 55.9676 108.425 54.7716C109.58 53.4593 111.024 52.8314 112.762 52.8046C113.902 52.787 115.005 52.8706 116.045 53.4092C117.309 54.0636 118.135 55.0714 118.609 56.394C118.897 57.196 119.069 58.013 119.042 58.8732C119.018 59.639 119.037 60.4063 119.037 61.2363C119.685 61.2363 120.408 61.244 121.13 61.2252C121.208 61.2231 121.33 61.0779 121.351 60.9816C121.817 58.8374 122.272 56.6909 122.727 54.5442C122.794 54.2298 122.88 53.9142 122.897 53.5959C122.915 53.2471 123.048 53.1426 123.394 53.1463C124.971 53.1632 126.548 53.1534 128.124 53.1544C128.238 53.1544 128.351 53.1638 128.488 53.17C127.925 55.8629 127.365 58.5372 126.8 61.2384C127.45 61.2384 128.066 61.2527 128.68 61.2258C128.796 61.2207 128.957 61.0748 129.01 60.9553C129.537 59.7655 129.972 58.5291 130.576 57.3808C131.588 55.4556 132.996 53.8424 135.117 53.1398C136.82 52.5756 138.578 52.4998 140.185 53.5811C140.881 54.0495 141.222 54.7492 141.392 55.5309C141.562 56.3122 141.527 57.1021 141.314 57.8774C140.886 59.4277 139.456 59.9413 138.066 59.1348C137.986 59.0881 137.952 58.883 137.968 58.7605C138.068 57.9541 138.225 57.1527 138.285 56.3439C138.308 56.0325 138.164 55.6893 138.031 55.39C137.804 54.8806 137.168 54.824 136.584 55.3716C136.149 55.7791 135.766 56.2742 135.472 56.7941C134.493 58.5298 133.957 60.425 133.567 62.3698C133.256 63.9164 133.071 65.473 133.151 67.0482C133.198 67.9618 133.354 68.8616 133.979 69.6032C134.833 70.6175 135.947 70.6901 137.113 70.4229C138.341 70.1414 139.378 69.4802 140.271 68.5964C140.651 68.2202 141.018 67.8312 141.394 67.4507C141.964 66.8739 142.01 66.0977 142.167 65.3723C142.582 63.4581 142.977 61.5397 143.368 59.6204C143.78 57.5923 144.178 55.561 144.585 53.5319C144.61 53.4113 144.664 53.2969 144.706 53.1776C146.583 53.1776 148.455 53.1776 150.341 53.1776C150.127 54.2148 149.919 55.2262 149.709 56.2372C149.348 57.975 148.991 59.7135 148.622 61.4498C148.242 63.2432 147.843 65.0326 147.469 66.8274C147.364 67.3342 147.281 67.8517 147.255 68.3676C147.176 69.9512 148.327 70.2649 149.47 70.045C150.61 69.8257 151.375 69.0406 151.975 68.1029C152.911 66.6397 153.298 65.0165 153.264 63.2905C153.254 62.8004 153.12 62.3432 152.676 62.0017C152.065 62.3847 151.429 62.4488 150.729 62.1769C149.524 61.7091 149.353 59.8806 150.46 59.1111C151.126 58.6485 151.881 58.5614 152.638 58.6995C153.327 58.825 153.953 58.8607 154.592 58.4873C156.805 57.1947 159.034 55.9284 161.261 54.6606C162.112 54.1766 162.975 53.7141 163.834 53.2459C163.918 53.2001 164.018 53.1588 164.111 53.1581C164.927 53.1513 165.742 53.1541 166.603 53.1541C166.266 54.7278 165.932 56.2657 165.608 57.8057C165.274 59.3933 164.961 60.9854 164.618 62.5709C164.367 63.7319 164.063 64.8817 163.819 66.0439C163.677 66.7152 163.552 67.3984 163.516 68.0814C163.456 69.1878 164.235 69.8266 165.437 69.5933C165.721 69.5382 166.004 69.4529 166.27 69.342C166.822 69.1126 166.88 68.6132 166.953 68.0962C167.062 67.3183 167.61 66.0671 168.719 65.862C170.222 65.5838 171.386 66.0657 171.584 67.7754C171.718 68.9279 171.102 69.6998 169.975 69.8802C170.069 70.5133 170.563 70.911 171.169 70.9659C172.714 71.1059 173.341 70.2268 173.894 68.9641C174.52 67.5348 174.717 65.9818 175.038 64.4643C175.531 62.1286 175.999 59.7784 176.954 57.5735C177.452 56.4225 178.065 55.3283 179.009 54.4582C179.791 53.7373 180.727 53.2959 181.762 53.2585C184.191 53.1709 186.623 53.1822 189.094 53.1535C189.134 53.1537 189.134 53.1967 189.134 53.2182Z" fill="#88BD2F"/>
<path d="M18.7097 0.0859985C18.3206 0.816166 17.929 1.57204 17.4535 2.27091C16.587 3.54467 15.4868 4.60163 14.2286 5.48829C12.4328 6.75388 10.4301 7.56631 8.30205 8.04837C7.17014 8.30479 6.01187 8.47696 4.85596 8.58728C3.35969 8.7301 1.85388 8.77266 0.352348 8.86116C0.284906 8.86514 0.219076 8.89646 0.119253 8.92999C0.08601 5.996 0.08601 3.04706 0.08601 0.0859985C6.28046 0.0859985 12.4749 0.0859985 18.7097 0.0859985Z" fill="white"/>
<path d="M11.4414 41.8023C15.1177 41.4118 18.807 41.5373 22.4914 41.5605C23.9965 41.5699 25.5082 41.6991 27.0028 41.8862C28.7913 42.11 30.5649 42.4539 32.3795 42.7446C32.4191 43.8732 32.4282 45.0031 32.4285 46.1329C32.4292 49.7667 32.4267 53.4004 32.3825 57.0737C31.8988 57.1407 31.458 57.1658 31.0176 57.1963C29.7529 57.284 28.4833 57.3293 27.2252 57.4743C25.6869 57.6515 24.1555 57.8953 22.6263 58.1423C20.12 58.547 17.6517 59.1245 15.2361 59.9071C13.9603 60.3204 12.7037 60.7932 11.4387 61.1988C11.4399 54.7064 11.4406 48.2543 11.4414 41.8023Z" fill="#A5D158"/>
<path d="M11.4384 61.2392C12.7037 60.7932 13.9603 60.3205 15.2361 59.9071C17.6517 59.1245 20.12 58.547 22.6263 58.1423C24.1555 57.8954 25.6869 57.6516 27.2252 57.4743C28.4833 57.3293 29.7529 57.284 31.0176 57.1964C31.458 57.1658 31.8988 57.1408 32.3752 57.1137C32.4159 57.8447 32.4246 58.5752 32.4248 59.3058C32.4261 63.848 32.4255 68.3902 32.4255 72.9325C32.4255 73.088 32.4255 73.2435 32.4255 73.425C25.3987 73.425 18.4003 73.425 11.3565 73.425C11.3565 69.3899 11.3565 65.3548 11.3802 61.2797C11.4039 61.2397 11.4384 61.2392 11.4384 61.2392Z" fill="#88BD2F"/>
<path d="M11.4387 61.1988C11.4384 61.2392 11.4039 61.2397 11.3867 61.24C11.364 61.1547 11.3539 61.0693 11.3539 60.9838C11.3541 54.6156 11.355 48.2474 11.3617 41.8391C11.3676 41.7991 11.4045 41.8004 11.4229 41.8013C11.4406 48.2543 11.4399 54.7064 11.4387 61.1988Z" fill="#91C83E"/>
<path d="M61.7179 66.6945C61.6917 66.6694 61.6896 66.6283 61.6876 66.5872C61.7058 66.6176 61.7239 66.6481 61.7179 66.6945Z" fill="white"/>
</g>
<defs>
<clipPath id="clip0_1_18">
<rect width="189.048" height="75" fill="white"/>
</clipPath>
</defs>
</svg>
