<svg width="71" height="71" viewBox="0 0 71 71" fill="none" xmlns="http://www.w3.org/2000/svg">
<circle cx="35.819" cy="35.1636" r="35" fill="#2B397B"/>
<path d="M34.7174 47.5447V43.977C34.7174 43.3697 34.2231 42.8754 33.6158 42.8754H27.006C26.3975 42.8754 25.9043 42.3822 25.9043 41.7737V24.1477C25.9043 23.5392 26.3975 23.046 27.006 23.046H33.6158C34.0019 23.046 34.3726 23.1132 34.7174 23.2354V16.5521C34.3726 16.4299 34.0019 16.3628 33.6158 16.3628H22.5994C21.991 16.3628 21.4978 16.8559 21.4978 17.4644V47.3553H33.6158C34.0019 47.3553 34.3726 47.4225 34.7174 47.5447Z" fill="white"/>
<path d="M36.9207 27.4526H43.5305V34.0624H36.9207V27.4526Z" fill="white"/>
<path d="M28.1076 25.249V40.6719H33.6158C34.0019 40.6719 34.3726 40.739 34.7174 40.8612V26.3507C34.7174 25.7433 34.2231 25.249 33.6158 25.249H28.1076Z" fill="white"/>
<path d="M49.0386 20.8428H36.9207V25.2493H44.6321C45.2406 25.2493 45.7337 25.7424 45.7337 26.3509V35.164C45.7337 35.7725 45.2406 36.2656 44.6321 36.2656H36.9207V38.4689H44.6321C45.2406 38.4689 45.7337 38.962 45.7337 39.5705C45.7337 40.179 45.2406 40.6721 44.6321 40.6721H36.9207V42.8754H44.6321C45.2406 42.8754 45.7337 43.3685 45.7337 43.977C45.7337 44.5855 45.2406 45.0787 44.6321 45.0787H36.9207V47.3554H40.2256C40.834 47.3554 41.3272 47.8485 41.3272 48.457C41.3272 49.0655 40.834 49.5586 40.2256 49.5586H36.9207V50.6603C36.9207 52.4825 35.4381 53.9651 33.6158 53.9651H49.0386C49.6471 53.9651 50.1402 53.472 50.1402 52.8635V21.9444C50.1402 21.3359 49.6471 20.8428 49.0386 20.8428Z" fill="white"/>
<path d="M34.7174 50.6602C34.7174 50.0529 34.2231 49.5586 33.6158 49.5586H28.1076V51.7619H33.6158C34.2231 51.7619 34.7174 51.2676 34.7174 50.6602Z" fill="white"/>
</svg>
